<mxfile host="65bd71144e">
    <diagram id="etLiFJXuhuvFvYDOZXLx" name="Page-1">
        <mxGraphModel dx="2025" dy="797" grid="1" gridSize="10" guides="1" tooltips="1" connect="1" arrows="1" fold="1" page="1" pageScale="1" pageWidth="850" pageHeight="1100" math="0" shadow="0">
            <root>
                <mxCell id="0"/>
                <mxCell id="1" parent="0"/>
                <mxCell id="15" value="" style="group" vertex="1" connectable="0" parent="1">
                    <mxGeometry x="90" y="30" width="620" height="230" as="geometry"/>
                </mxCell>
                <mxCell id="2" value="" style="shape=flexArrow;endArrow=classic;html=1;fontSize=10;fontColor=#000000;exitX=0.509;exitY=1.011;exitDx=0;exitDy=0;exitPerimeter=0;fillColor=#fad9d5;strokeColor=none;" edge="1" parent="15">
                    <mxGeometry width="50" height="50" relative="1" as="geometry">
                        <mxPoint x="321.2600000000002" y="28.329999999999927" as="sourcePoint"/>
                        <mxPoint x="321" y="68" as="targetPoint"/>
                    </mxGeometry>
                </mxCell>
                <mxCell id="4" value="Frontend" style="shape=internalStorage;whiteSpace=wrap;html=1;backgroundOutline=1;dx=10;dy=10;fillColor=#1ba1e2;fontColor=#ffffff;strokeColor=#006EAF;" vertex="1" parent="15">
                    <mxGeometry y="120" width="100" height="90" as="geometry"/>
                </mxCell>
                <mxCell id="5" style="edgeStyle=none;html=1;exitX=0;exitY=0.75;exitDx=0;exitDy=0;entryX=1;entryY=0.75;entryDx=0;entryDy=0;" edge="1" parent="15" source="7" target="4">
                    <mxGeometry relative="1" as="geometry"/>
                </mxCell>
                <mxCell id="7" value="Server&lt;br&gt;&lt;font style=&quot;font-size: 10px;&quot;&gt;(business logics)&lt;/font&gt;" style="shape=internalStorage;whiteSpace=wrap;html=1;backgroundOutline=1;dx=10;dy=10;fillColor=#f8cecc;gradientColor=#ea6b66;strokeColor=#b85450;" vertex="1" parent="15">
                    <mxGeometry x="280" y="120" width="100" height="90" as="geometry"/>
                </mxCell>
                <mxCell id="3" style="edgeStyle=none;html=1;exitX=1;exitY=0.25;exitDx=0;exitDy=0;entryX=0;entryY=0.25;entryDx=0;entryDy=0;" edge="1" parent="15" source="4" target="7">
                    <mxGeometry relative="1" as="geometry"/>
                </mxCell>
                <mxCell id="8" style="edgeStyle=none;html=1;exitX=0;exitY=0.75;exitDx=0;exitDy=0;entryX=1;entryY=0.75;entryDx=0;entryDy=0;" edge="1" parent="15" source="9" target="7">
                    <mxGeometry relative="1" as="geometry"/>
                </mxCell>
                <mxCell id="9" value="Database" style="shape=internalStorage;whiteSpace=wrap;html=1;backgroundOutline=1;dx=10;dy=10;fillColor=#d80073;strokeColor=#A50040;fontColor=#ffffff;" vertex="1" parent="15">
                    <mxGeometry x="520" y="120" width="100" height="90" as="geometry"/>
                </mxCell>
                <mxCell id="6" style="edgeStyle=none;html=1;exitX=1;exitY=0.25;exitDx=0;exitDy=0;entryX=0;entryY=0.25;entryDx=0;entryDy=0;" edge="1" parent="15" source="7" target="9">
                    <mxGeometry relative="1" as="geometry"/>
                </mxCell>
                <mxCell id="10" value="http request" style="text;html=1;align=center;verticalAlign=middle;resizable=0;points=[];autosize=1;strokeColor=none;fillColor=none;" vertex="1" parent="15">
                    <mxGeometry x="140" y="110" width="90" height="30" as="geometry"/>
                </mxCell>
                <mxCell id="11" value="DB query&lt;br&gt;request" style="text;html=1;align=center;verticalAlign=middle;resizable=0;points=[];autosize=1;strokeColor=none;fillColor=none;" vertex="1" parent="15">
                    <mxGeometry x="410" y="100" width="70" height="40" as="geometry"/>
                </mxCell>
                <mxCell id="12" value="DB query&lt;br&gt;response" style="text;html=1;align=center;verticalAlign=middle;resizable=0;points=[];autosize=1;strokeColor=none;fillColor=none;" vertex="1" parent="15">
                    <mxGeometry x="420" y="190" width="70" height="40" as="geometry"/>
                </mxCell>
                <mxCell id="13" value="Server response&lt;br&gt;data" style="text;html=1;align=center;verticalAlign=middle;resizable=0;points=[];autosize=1;strokeColor=none;fillColor=none;" vertex="1" parent="15">
                    <mxGeometry x="130" y="190" width="110" height="40" as="geometry"/>
                </mxCell>
                <mxCell id="14" value="Server micro services" style="text;html=1;align=center;verticalAlign=middle;resizable=0;points=[];autosize=1;fillColor=#fad9d5;strokeColor=none;rounded=1;fontColor=#000000;" vertex="1" parent="15">
                    <mxGeometry x="250" width="140" height="30" as="geometry"/>
                </mxCell>
                <mxCell id="16" value="" style="group" vertex="1" connectable="0" parent="1">
                    <mxGeometry x="90" y="30" width="620" height="230" as="geometry"/>
                </mxCell>
                <mxCell id="17" value="" style="shape=flexArrow;endArrow=classic;html=1;fontSize=10;fontColor=#000000;exitX=0.509;exitY=1.011;exitDx=0;exitDy=0;exitPerimeter=0;fillColor=#fad9d5;strokeColor=none;" edge="1" parent="16">
                    <mxGeometry width="50" height="50" relative="1" as="geometry">
                        <mxPoint x="321.2600000000002" y="28.329999999999927" as="sourcePoint"/>
                        <mxPoint x="321" y="68" as="targetPoint"/>
                    </mxGeometry>
                </mxCell>
                <mxCell id="18" value="Frontend" style="shape=internalStorage;whiteSpace=wrap;html=1;backgroundOutline=1;dx=10;dy=10;fillColor=#1ba1e2;fontColor=#ffffff;strokeColor=#006EAF;" vertex="1" parent="16">
                    <mxGeometry y="120" width="100" height="90" as="geometry"/>
                </mxCell>
                <mxCell id="19" style="edgeStyle=none;html=1;exitX=0;exitY=0.75;exitDx=0;exitDy=0;entryX=1;entryY=0.75;entryDx=0;entryDy=0;" edge="1" parent="16" source="20" target="18">
                    <mxGeometry relative="1" as="geometry"/>
                </mxCell>
                <mxCell id="20" value="Server&lt;br&gt;&lt;font style=&quot;font-size: 10px;&quot;&gt;(business logics)&lt;/font&gt;" style="shape=internalStorage;whiteSpace=wrap;html=1;backgroundOutline=1;dx=10;dy=10;fillColor=#f8cecc;gradientColor=#ea6b66;strokeColor=#b85450;" vertex="1" parent="16">
                    <mxGeometry x="280" y="120" width="100" height="90" as="geometry"/>
                </mxCell>
                <mxCell id="21" style="edgeStyle=none;html=1;exitX=1;exitY=0.25;exitDx=0;exitDy=0;entryX=0;entryY=0.25;entryDx=0;entryDy=0;" edge="1" parent="16" source="18" target="20">
                    <mxGeometry relative="1" as="geometry"/>
                </mxCell>
                <mxCell id="22" style="edgeStyle=none;html=1;exitX=0;exitY=0.75;exitDx=0;exitDy=0;entryX=1;entryY=0.75;entryDx=0;entryDy=0;" edge="1" parent="16" source="23" target="20">
                    <mxGeometry relative="1" as="geometry"/>
                </mxCell>
                <mxCell id="23" value="Database" style="shape=internalStorage;whiteSpace=wrap;html=1;backgroundOutline=1;dx=10;dy=10;fillColor=#d80073;strokeColor=#A50040;fontColor=#ffffff;" vertex="1" parent="16">
                    <mxGeometry x="520" y="120" width="100" height="90" as="geometry"/>
                </mxCell>
                <mxCell id="24" style="edgeStyle=none;html=1;exitX=1;exitY=0.25;exitDx=0;exitDy=0;entryX=0;entryY=0.25;entryDx=0;entryDy=0;" edge="1" parent="16" source="20" target="23">
                    <mxGeometry relative="1" as="geometry"/>
                </mxCell>
                <mxCell id="25" value="http request" style="text;html=1;align=center;verticalAlign=middle;resizable=0;points=[];autosize=1;strokeColor=none;fillColor=none;" vertex="1" parent="16">
                    <mxGeometry x="140" y="110" width="90" height="30" as="geometry"/>
                </mxCell>
                <mxCell id="26" value="DB query&lt;br&gt;request" style="text;html=1;align=center;verticalAlign=middle;resizable=0;points=[];autosize=1;strokeColor=none;fillColor=none;" vertex="1" parent="16">
                    <mxGeometry x="410" y="100" width="70" height="40" as="geometry"/>
                </mxCell>
                <mxCell id="27" value="DB query&lt;br&gt;response" style="text;html=1;align=center;verticalAlign=middle;resizable=0;points=[];autosize=1;strokeColor=none;fillColor=none;" vertex="1" parent="16">
                    <mxGeometry x="420" y="190" width="70" height="40" as="geometry"/>
                </mxCell>
                <mxCell id="28" value="Server response&lt;br&gt;data" style="text;html=1;align=center;verticalAlign=middle;resizable=0;points=[];autosize=1;strokeColor=none;fillColor=none;" vertex="1" parent="16">
                    <mxGeometry x="130" y="190" width="110" height="40" as="geometry"/>
                </mxCell>
                <mxCell id="29" value="Frontend Components&lt;br&gt;and layouts" style="text;html=1;align=center;verticalAlign=middle;resizable=0;points=[];autosize=1;fillColor=#fad9d5;strokeColor=none;rounded=1;fontColor=#000000;" vertex="1" parent="16">
                    <mxGeometry x="250" y="-5" width="140" height="40" as="geometry"/>
                </mxCell>
                <mxCell id="30" value="" style="verticalLabelPosition=bottom;shadow=0;dashed=0;align=center;html=1;verticalAlign=top;strokeWidth=1;shape=mxgraph.mockup.misc.loading_circle_1;pointerEvents=1" vertex="1" parent="16">
                    <mxGeometry x="320" y="183" width="20" height="20" as="geometry"/>
                </mxCell>
                <mxCell id="31" style="edgeStyle=elbowEdgeStyle;elbow=vertical;html=1;exitX=0.283;exitY=0.079;exitDx=0;exitDy=0;exitPerimeter=0;" edge="1" parent="1" source="32" target="27">
                    <mxGeometry relative="1" as="geometry">
                        <mxPoint x="860" y="310" as="targetPoint"/>
                    </mxGeometry>
                </mxCell>
                <mxCell id="32" value="" style="image;html=1;image=img/lib/clip_art/computers/Server_Rack_128x128.png" vertex="1" parent="1">
                    <mxGeometry x="630" y="360" width="460" height="380" as="geometry"/>
                </mxCell>
                <mxCell id="33" value="" style="edgeStyle=orthogonalEdgeStyle;html=1;entryX=0;entryY=0.5;entryDx=0;entryDy=0;" edge="1" parent="1" source="34" target="18">
                    <mxGeometry relative="1" as="geometry">
                        <mxPoint x="-275" y="140" as="targetPoint"/>
                        <Array as="points">
                            <mxPoint x="-290" y="195"/>
                        </Array>
                    </mxGeometry>
                </mxCell>
                <mxCell id="34" value="" style="strokeWidth=1;shadow=0;dashed=0;align=center;html=1;shape=mxgraph.mockup.containers.browserWindow;rSize=0;strokeColor=#666666;strokeColor2=#008cff;strokeColor3=#c4c4c4;mainText=,;recursiveResize=0;" vertex="1" parent="1">
                    <mxGeometry x="-550" y="380" width="550" height="380" as="geometry"/>
                </mxCell>
                <mxCell id="35" value="Page 1" style="strokeWidth=1;shadow=0;dashed=0;align=center;html=1;shape=mxgraph.mockup.containers.anchor;fontSize=17;fontColor=#666666;align=left;" vertex="1" parent="34">
                    <mxGeometry x="60" y="12" width="110" height="26" as="geometry"/>
                </mxCell>
                <mxCell id="36" value="https://www.draw.io" style="strokeWidth=1;shadow=0;dashed=0;align=center;html=1;shape=mxgraph.mockup.containers.anchor;rSize=0;fontSize=17;fontColor=#666666;align=left;" vertex="1" parent="34">
                    <mxGeometry x="130" y="60" width="250" height="26" as="geometry"/>
                </mxCell>
                <mxCell id="37" value="" style="shape=mxgraph.mockup.containers.marginRect;rectMarginTop=10;strokeColor=#666666;strokeWidth=1;dashed=0;rounded=1;arcSize=5;recursiveResize=0;" vertex="1" parent="34">
                    <mxGeometry x="15" y="120" width="110" height="110" as="geometry"/>
                </mxCell>
                <mxCell id="38" value="Group" style="shape=rect;strokeColor=none;fillColor=#008cff;strokeWidth=1;dashed=0;rounded=1;arcSize=20;fontColor=#ffffff;fontSize=17;spacing=2;spacingTop=-2;align=left;autosize=1;spacingLeft=4;resizeWidth=0;resizeHeight=0;perimeter=none;" vertex="1" parent="37">
                    <mxGeometry x="5" width="90" height="30" as="geometry"/>
                </mxCell>
                <mxCell id="39" value="" style="shape=mxgraph.mockup.containers.marginRect;rectMarginTop=10;strokeColor=#666666;strokeWidth=1;dashed=0;rounded=1;arcSize=5;recursiveResize=0;" vertex="1" parent="34">
                    <mxGeometry x="150" y="120" width="110" height="110" as="geometry"/>
                </mxCell>
                <mxCell id="40" value="Group" style="shape=rect;strokeColor=none;fillColor=#008cff;strokeWidth=1;dashed=0;rounded=1;arcSize=20;fontColor=#ffffff;fontSize=17;spacing=2;spacingTop=-2;align=left;autosize=1;spacingLeft=4;resizeWidth=0;resizeHeight=0;perimeter=none;" vertex="1" parent="39">
                    <mxGeometry x="5" width="90" height="30" as="geometry"/>
                </mxCell>
                <mxCell id="41" value="" style="shape=mxgraph.mockup.containers.marginRect;rectMarginTop=10;strokeColor=#666666;strokeWidth=1;dashed=0;rounded=1;arcSize=5;recursiveResize=0;" vertex="1" parent="34">
                    <mxGeometry x="290" y="120" width="110" height="110" as="geometry"/>
                </mxCell>
                <mxCell id="42" value="Group" style="shape=rect;strokeColor=none;fillColor=#008cff;strokeWidth=1;dashed=0;rounded=1;arcSize=20;fontColor=#ffffff;fontSize=17;spacing=2;spacingTop=-2;align=left;autosize=1;spacingLeft=4;resizeWidth=0;resizeHeight=0;perimeter=none;" vertex="1" parent="41">
                    <mxGeometry x="5" width="90" height="30" as="geometry"/>
                </mxCell>
                <mxCell id="43" value="" style="shape=mxgraph.mockup.containers.marginRect;rectMarginTop=10;strokeColor=#666666;strokeWidth=1;dashed=0;rounded=1;arcSize=5;recursiveResize=0;" vertex="1" parent="34">
                    <mxGeometry x="430" y="120" width="110" height="110" as="geometry"/>
                </mxCell>
                <mxCell id="44" value="Group" style="shape=rect;strokeColor=none;fillColor=#008cff;strokeWidth=1;dashed=0;rounded=1;arcSize=20;fontColor=#ffffff;fontSize=17;spacing=2;spacingTop=-2;align=left;autosize=1;spacingLeft=4;resizeWidth=0;resizeHeight=0;perimeter=none;" vertex="1" parent="43">
                    <mxGeometry x="5" width="90" height="30" as="geometry"/>
                </mxCell>
                <mxCell id="45" style="edgeStyle=elbowEdgeStyle;html=1;exitX=0.5;exitY=1;exitDx=0;exitDy=0;entryX=0.585;entryY=-0.005;entryDx=0;entryDy=0;entryPerimeter=0;elbow=vertical;" edge="1" parent="1" source="20" target="34">
                    <mxGeometry relative="1" as="geometry">
                        <mxPoint x="420" y="310" as="targetPoint"/>
                    </mxGeometry>
                </mxCell>
                <mxCell id="46" style="edgeStyle=elbowEdgeStyle;elbow=vertical;html=1;entryX=0.522;entryY=0.053;entryDx=0;entryDy=0;entryPerimeter=0;" edge="1" parent="1" source="26" target="32">
                    <mxGeometry relative="1" as="geometry">
                        <mxPoint x="970" y="330" as="targetPoint"/>
                        <Array as="points">
                            <mxPoint x="790" y="80"/>
                        </Array>
                    </mxGeometry>
                </mxCell>
                <mxCell id="47" value="Main Server" style="text;html=1;align=center;verticalAlign=middle;resizable=0;points=[];autosize=1;strokeColor=none;fillColor=none;strokeWidth=2;fontSize=20;" vertex="1" parent="1">
                    <mxGeometry x="780" y="735" width="130" height="40" as="geometry"/>
                </mxCell>
            </root>
        </mxGraphModel>
    </diagram>
</mxfile>